<?xml version='1.0' encoding='utf-8'?>
<svg xmlns="http://www.w3.org/2000/svg" width="1920" height="1080" viewBox="0 0 1920 1080" data-theme="light" data-semantic-intent="uncertain_compare" data-relation-type="hypothesis_comparison" data-site-visual-identity="signal-cobalt">
  <style>
        @font-face {
            font-family: 'Inter';
            src: url('assets/fonts/Inter-Regular.ttf') format('truetype');
            font-weight: 400;
            font-style: normal;
            font-display: swap;
        }
        @font-face {
            font-family: 'Inter';
            src: url('assets/fonts/Inter-Bold.ttf') format('truetype');
            font-weight: 600;
            font-style: normal;
            font-display: swap;
        }
        @font-face {
            font-family: 'Inter';
            src: url('assets/fonts/Inter-Bold.ttf') format('truetype');
            font-weight: 800;
            font-style: normal;
            font-display: swap;
        }
        
:root {
    --background: #f8fafc;
    --panel: #ffffff;
    --primary-text: #0f172a;
    --muted-text: #64748b;
    --inverse-text: #ffffff;
    --border: #e2e8f0;
    --shadow-color: #000000;
    --icon-pad-bg: #1e293b;
    --art-glow: #0891b2;
    --art-glow-opacity: 0.10;
    --art-sheen: #ffffff;
    --art-sheen-opacity: 0.34;
    --art-shadow: #0f172a;
    --art-shadow-opacity: 0.14;
    --art-muted-line: #94a3b8;
    --art-panel-tint: #f1f5f9;
    --semantic-risk: #b91c1c;
    --semantic-warning: #c2410c;
    --semantic-uncertain: #a16207;
    --semantic-evidence: #1d4ed8;
    --semantic-claim: #6d28d9;
    --semantic-positive: #15803d;
    --semantic-outcome: #0e7490;
    --font-family: 'Inter', 'Segoe UI', 'Kalam', Roboto, Helvetica, Arial, sans-serif;
    --radius-xl: 16px;
    --font-family-headline: 'Segoe UI Variable Display', 'Aptos Display', 'Inter', 'Segoe UI', Helvetica, Arial, sans-serif;
    --font-family-body: 'Segoe UI Variable Text', 'Aptos', 'Inter', 'Segoe UI', Helvetica, Arial, sans-serif;
    --font-heading: var(--font-family-headline);
    --font-body: var(--font-family-body);
    --font-size-h1: 64px;
    --font-size-h2: 42px;
    --font-size-h3: 29px;
    --font-size-body: 21px;
    --font-size-caption: 17px;
    --secondary-text: var(--muted-text);
    --panel-border: var(--border);
    --font-weight-normal: 400;
    --font-weight-medium: 500;
    --font-weight-semibold: 600;
    --font-weight-bold: 700;
    --spacing-gutter-pct: 0.07;
    --spacing-top-pct: 0.15;
    --spacing-bottom-pct: 0.07;
    --spacing-title-y-pct: 0.055;
    --accent-1: #1d4ed8;
    --accent-2: #2563eb;
    --accent-3: #4f46e5;
    --accent-4: #6d28d9;
    --accent-5: #0369a1;
    --accent-6: #c2410c;
}
:root[data-theme="dark"] {
    --background: #0f172a;
    --panel: #1e293b;
    --primary-text: #f1f5f9;
    --muted-text: #94a3b8;
    --inverse-text: #0f172a;
    --border: #334155;
    --shadow-color: #000000;
    --icon-pad-bg: #1e293b;
    --art-glow: #7dd3fc;
    --art-glow-opacity: 0.18;
    --art-sheen: #ffffff;
    --art-sheen-opacity: 0.18;
    --art-shadow: #000000;
    --art-shadow-opacity: 0.28;
    --art-muted-line: #64748b;
    --art-panel-tint: #1e293b;
    --semantic-risk: #f87171;
    --semantic-warning: #fb923c;
    --semantic-uncertain: #fbbf24;
    --semantic-evidence: #60a5fa;
    --semantic-claim: #c084fc;
    --semantic-positive: #4ade80;
    --semantic-outcome: #22d3ee;
    --accent-1: #93c5fd;
    --accent-2: #60a5fa;
    --accent-3: #818cf8;
    --accent-4: #a78bfa;
    --accent-5: #38bdf8;
    --accent-6: #fb923c;
}
:root[data-theme="light"] {
    --background: #f8fafc;
    --panel: #ffffff;
    --primary-text: #0f172a;
    --muted-text: #64748b;
    --inverse-text: #ffffff;
    --border: #e2e8f0;
    --shadow-color: #000000;
    --icon-pad-bg: #1e293b;
    --art-glow: #0891b2;
    --art-glow-opacity: 0.10;
    --art-sheen: #ffffff;
    --art-sheen-opacity: 0.34;
    --art-shadow: #0f172a;
    --art-shadow-opacity: 0.14;
    --art-muted-line: #94a3b8;
    --art-panel-tint: #f1f5f9;
    --semantic-risk: #b91c1c;
    --semantic-warning: #c2410c;
    --semantic-uncertain: #a16207;
    --semantic-evidence: #1d4ed8;
    --semantic-claim: #6d28d9;
    --semantic-positive: #15803d;
    --semantic-outcome: #0e7490;
    --accent-1: #1d4ed8;
    --accent-2: #2563eb;
    --accent-3: #4f46e5;
    --accent-4: #6d28d9;
    --accent-5: #0369a1;
    --accent-6: #c2410c;
}</style>
  <rect x="0" y="0" width="1.92E+3" height="1.08E+3" fill="#f8fafc" stroke="none" id="programmatic_background"/>
  <line id="HEADER_DECOR" x1="960.0" x2="1080.0" y1="135.0" y2="135.0" stroke="var(--accent-1)" stroke-width="6" stroke-linecap="round"/>
  <defs>
    <filter id="svgba3acceb-force-white" x="-20%" y="-20%" width="140%" height="140%">
      <feColorMatrix type="matrix" values="0 0 0 0 1                                            0 0 0 0 1                                            0 0 0 0 1                                            0 0 0 1 0"/>
    </filter>
    <pattern id="svgba3acceb-napkin-hatch" patternUnits="userSpaceOnUse" width="12" height="12">
      <path d="M -3 12 L 12 -3 M 0 15 L 15 0" fill="none" stroke="var(--primary-text)" stroke-width="1" stroke-opacity="0.05"/>
    </pattern>
    <radialGradient id="svgba3acceb-universal-edge-vignette" cx="50%" cy="50%" r="72%">
      <stop offset="0%" stop-color="var(--background)" stop-opacity="0"/>
      <stop offset="72%" stop-color="var(--background)" stop-opacity="0.12"/>
      <stop offset="100%" stop-color="var(--primary-text)" stop-opacity="0.08"/>
    </radialGradient>
    <linearGradient id="svgba3acceb-universal-surface-sheen" x1="0%" y1="0%" x2="100%" y2="100%">
      <stop offset="0%" stop-color="var(--art-sheen)" stop-opacity="var(--art-sheen-opacity)"/>
      <stop offset="46%" stop-color="var(--art-sheen)" stop-opacity="0.035"/>
      <stop offset="100%" stop-color="var(--art-panel-tint)" stop-opacity="0.14"/>
    </linearGradient>
    <radialGradient id="svgba3acceb-universal-icon-aura" cx="50%" cy="42%" r="64%">
      <stop offset="0%" stop-color="var(--art-glow)" stop-opacity="var(--art-glow-opacity)"/>
      <stop offset="100%" stop-color="var(--background)" stop-opacity="0"/>
    </radialGradient>
    <linearGradient id="svgba3acceb-comparison-card-depth" x1="0%" y1="0%" x2="0%" y2="100%">
      <stop offset="0%" stop-color="var(--art-sheen)" stop-opacity="0.30"/>
      <stop offset="55%" stop-color="var(--art-sheen)" stop-opacity="0.035"/>
      <stop offset="100%" stop-color="var(--art-shadow)" stop-opacity="0.10"/>
    </linearGradient>
    <filter id="svgba3acceb-text-glow" x="-20%" y="-20%" width="140%" height="140%">
      <feDropShadow dx="0" dy="0" stdDeviation="2" flood-color="#000000" flood-opacity="0.4"/>
    </filter>
    <filter id="svgba3acceb-shadow" x="-30%" y="-30%" width="160%" height="160%">
      <feDropShadow dx="0" dy="2" stdDeviation="3" flood-color="#000000" flood-opacity="0.08"/>
      <feDropShadow dx="0" dy="6" stdDeviation="10" flood-color="#000000" flood-opacity="0.12"/>
    </filter>
    <marker id="svgba3acceb-arrowhead" markerWidth="10" markerHeight="7" refX="9" refY="3.5" orient="auto" markerUnits="strokeWidth">
      <polygon points="0 0, 10 3.5, 0 7" fill="var(--muted-text)" opacity="0.6"/>
    </marker>
  </defs>
  <rect width="100%" height="100%" fill="var(--background)" id="CANVAS_BG"/>
  <rect width="100%" height="100%" fill="url(#svgba3acceb-napkin-hatch)"/>
  <rect id="UNIVERSAL_EDGE_VIGNETTE" width="100%" height="100%" fill="url(#svgba3acceb-universal-edge-vignette)" opacity="0.62"/>
  <text id="TITLE" x="960.0" y="59" font-size="63" font-weight="700" fill="#0f172a" style="font-size: 69px; font-family: 'Segoe UI Variable Display', 'Aptos Display', 'Inter', 'Segoe UI', Helvetica, Arial, sans-serif; font-weight: 800; font-kerning: normal; font-feature-settings: &quot;kern&quot; 1, &quot;liga&quot; 1; letter-spacing:-1.2px;" text-anchor="middle" data-final-font-size="69">
    <tspan x="960.0" dy="70.47px">Research Suppression vs. Mundane Motives</tspan>
  </text>
  <rect id="TITLE_FRAME" x="134" y="59" width="1652" height="103" fill="none"/>
  <g transform="translate(255.0, 630.0)">
    <rect id="CARD_1_BG" x="-225" y="-330" width="450" height="660" rx="18" fill="var(--semantic-uncertain)" stroke="var(--accent-1)" stroke-width="2" fill-opacity="1.0"/>
    <circle cy="-180" r="50" fill="var(--background)" stroke="var(--accent-1)" stroke-width="2" id="ITEM_1_BADGE"/>
    <rect id="ITEM_1_TEXT_BG" x="-213.0" y="-106.0" width="426.0" height="350.8" rx="22" fill="var(--panel)" fill-opacity="0.94" stroke="var(--primary-text)" stroke-opacity="0.12" stroke-width="1.5"/>
    <rect id="COMPARISON_COLUMNS_ART_PANEL_SHEEN_1" x="-213.0" y="-106.0" width="426.0" height="350.8" rx="16" fill="var(--semantic-uncertain)" opacity="0.82" fill-opacity="1.0"/>
    <text id="ITEM_1_HEAD" data-bg-id="ITEM_1_TEXT_BG" text-anchor="middle" font-weight="bold" font-size="36" fill="var(--primary-text)" x="0.0" y="-90.0" fill-opacity="1.0" style="font-size: 31px; font-family: 'Segoe UI Variable Display', 'Aptos Display', 'Inter', 'Segoe UI', Helvetica, Arial, sans-serif; font-weight: 700; font-kerning: normal; font-feature-settings: &quot;kern&quot; 1, &quot;liga&quot; 1; letter-spacing:-0.4px;" data-final-font-size="31">
      <tspan x="0.0" dy="34.40px">Suppression Theory</tspan>
    </text>
    <rect id="ITEM_1_HEAD_FRAME" x="-195" y="-90" width="390" height="51.75" fill="none"/>
    <text id="ITEM_1_BODY" data-bg-id="ITEM_1_TEXT_BG" text-anchor="middle" font-size="21" x="0.0" y="-30.0" fill="var(--primary-text)" font-weight="700" opacity="1" style="font-size: 23px; font-family: 'Segoe UI Variable Text', 'Aptos', 'Inter', 'Segoe UI', Helvetica, Arial, sans-serif; font-weight: 400; font-kerning: normal; font-feature-settings: &quot;kern&quot; 1, &quot;liga&quot; 1;" data-max-lines="20" data-final-font-size="23">
      <tspan x="0.0" dy="54.29px">Narratively attractive but</tspan>
      <tspan x="0.0" dy="26.45px">requires specific evidentiary</tspan>
      <tspan x="0.0" dy="26.45px">links to a hostile actor</tspan>
    </text>
    <rect id="ITEM_1_BODY_FRAME" x="-190" y="-30" width="380" height="258.8" fill="none"/>
    <circle id="ITEM_1_PAD" cx="0.0" cy="-180.0" r="58" fill="var(--icon-pad-bg)" stroke="var(--semantic-uncertain)" opacity="1" fill-opacity="0.9" stroke-width="2" stroke-opacity="0.72" data-badge-layer="pad"/>
    <circle cx="0.0" cy="-180.0" r="46.4" fill="none" stroke="var(--accent-1)" stroke-width="3" stroke-dasharray="6 4" display="none" data-suppressed-decoration="redundant-badge-ring"/>
    <g id="ITEM_1_ICON" transform="translate(-45.0, -225.0)" data-icon-size="90" stroke-linecap="round" stroke-linejoin="round" data-badge-treatment="clean">
      <g transform="translate(-6.7028571428571455,-3.471428571428577) scale(0.40392857142857147)" vector-effect="non-scaling-stroke" stroke-width="2.79" stroke-linecap="round" stroke-linejoin="round" stroke-opacity="1.0">
        <path d="M24,176V64A24,24,0,0,1,48,40H64V152H48a24,24,0,0,0,0,48H232V64H64" fill="none" stroke="#f1f5f9" vector-effect="non-scaling-stroke"/>
        <line x1="128" y1="96" x2="128" y2="160" fill="none" stroke="#f1f5f9" vector-effect="non-scaling-stroke"/>
        <line x1="168" y1="96" x2="168" y2="160" fill="none" stroke="#f1f5f9" vector-effect="non-scaling-stroke"/>
        <line x1="104" y1="112" x2="192" y2="112" fill="none" stroke="#f1f5f9" vector-effect="non-scaling-stroke"/>
        <line x1="104" y1="144" x2="192" y2="144" fill="none" stroke="#f1f5f9" vector-effect="non-scaling-stroke"/>
      </g>
    </g>
  </g>
  <g transform="translate(726.0, 630.0)">
    <rect id="CARD_2_BG" x="-225" y="-330" width="450" height="660" rx="18" fill="var(--semantic-uncertain)" stroke="var(--accent-2)" stroke-width="2" fill-opacity="1.0"/>
    <circle cy="-180" r="50" fill="var(--background)" stroke="var(--accent-2)" stroke-width="2" id="ITEM_2_BADGE"/>
    <rect id="ITEM_2_TEXT_BG" x="-213.0" y="-106.0" width="426.0" height="350.8" rx="22" fill="var(--panel)" fill-opacity="0.94" stroke="var(--primary-text)" stroke-opacity="0.12" stroke-width="1.5"/>
    <rect id="COMPARISON_COLUMNS_ART_PANEL_SHEEN_2" x="-213.0" y="-106.0" width="426.0" height="350.8" rx="16" fill="var(--semantic-uncertain)" opacity="0.82" fill-opacity="1.0"/>
    <text id="ITEM_2_HEAD" data-bg-id="ITEM_2_TEXT_BG" text-anchor="middle" font-weight="bold" font-size="36" fill="var(--primary-text)" x="0.0" y="-90.0" fill-opacity="1.0" style="font-size: 31px; font-family: 'Segoe UI Variable Display', 'Aptos Display', 'Inter', 'Segoe UI', Helvetica, Arial, sans-serif; font-weight: 700; font-kerning: normal; font-feature-settings: &quot;kern&quot; 1, &quot;liga&quot; 1; letter-spacing:-0.4px;" data-final-font-size="31">
      <tspan x="0.0" dy="34.40px">Mundane Conflict</tspan>
    </text>
    <rect id="ITEM_2_HEAD_FRAME" x="-195" y="-90" width="390" height="51.75" fill="none"/>
    <text id="ITEM_2_BODY" data-bg-id="ITEM_2_TEXT_BG" text-anchor="middle" font-size="21" x="0.0" y="-30.0" fill="var(--primary-text)" font-weight="700" opacity="1" style="font-size: 23px; font-family: 'Segoe UI Variable Text', 'Aptos', 'Inter', 'Segoe UI', Helvetica, Arial, sans-serif; font-weight: 400; font-kerning: normal; font-feature-settings: &quot;kern&quot; 1, &quot;liga&quot; 1;" data-max-lines="20" data-final-font-size="23">
      <tspan x="0.0" dy="54.29px">Often provides more specific</tspan>
      <tspan x="0.0" dy="26.45px">forensic and witness links to the</tspan>
      <tspan x="0.0" dy="26.45px">crime scene</tspan>
    </text>
    <rect id="ITEM_2_BODY_FRAME" x="-190" y="-30" width="380" height="258.8" fill="none"/>
    <circle id="ITEM_2_PAD" cx="0.0" cy="-180.0" r="58" fill="var(--icon-pad-bg)" stroke="var(--semantic-uncertain)" opacity="1" fill-opacity="0.9" stroke-width="2" stroke-opacity="0.72" data-badge-layer="pad"/>
    <circle cx="0.0" cy="-180.0" r="46.4" fill="none" stroke="var(--accent-1)" stroke-width="3" stroke-dasharray="6 4" display="none" data-suppressed-decoration="redundant-badge-ring"/>
    <g id="ITEM_2_ICON" transform="translate(-45.0, -225.0)" data-icon-size="90" stroke-linecap="round" stroke-linejoin="round" data-badge-treatment="clean">
      <g transform="translate(-6.702857142857148,-6.7028571428571455) scale(3.2314285714285718)" vector-effect="non-scaling-stroke" fill="#f1f5f9" fill-opacity="1.0" stroke="none">
        <path fill="#f1f5f9" d="M14 23h8v2h-8zm-4 0h2v2h-2zm4-5h8v2h-8zm-4 0h2v2h-2zm4-5h8v2h-8zm-4 0h2v2h-2z" vector-effect="non-scaling-stroke" stroke="none"/>
        <path fill="#f1f5f9" d="M25 5h-3V4a2 2 0 0 0-2-2h-8a2 2 0 0 0-2 2v1H7a2 2 0 0 0-2 2v21a2 2 0 0 0 2 2h18a2 2 0 0 0 2-2V7a2 2 0 0 0-2-2M12 4h8v4h-8Zm13 24H7V7h3v3h12V7h3Z" vector-effect="non-scaling-stroke" stroke="none"/>
      </g>
    </g>
  </g>
  <g transform="translate(1194.0, 630.0)">
    <rect id="CARD_3_BG" x="-225" y="-330" width="450" height="660" rx="18" fill="var(--semantic-uncertain)" stroke="var(--accent-3)" stroke-width="2" fill-opacity="1.0"/>
    <circle cy="-180" r="50" fill="var(--background)" stroke="var(--accent-3)" stroke-width="2" id="ITEM_3_BADGE"/>
    <rect id="ITEM_3_TEXT_BG" x="-213.0" y="-106.0" width="426.0" height="350.8" rx="22" fill="var(--panel)" fill-opacity="0.94" stroke="var(--primary-text)" stroke-opacity="0.12" stroke-width="1.5"/>
    <rect id="COMPARISON_COLUMNS_ART_PANEL_SHEEN_3" x="-213.0" y="-106.0" width="426.0" height="350.8" rx="16" fill="var(--semantic-uncertain)" opacity="0.82" fill-opacity="1.0"/>
    <text id="ITEM_3_HEAD" data-bg-id="ITEM_3_TEXT_BG" text-anchor="middle" font-weight="bold" font-size="36" fill="var(--primary-text)" x="0.0" y="-90.0" fill-opacity="1.0" style="font-size: 31px; font-family: 'Segoe UI Variable Display', 'Aptos Display', 'Inter', 'Segoe UI', Helvetica, Arial, sans-serif; font-weight: 700; font-kerning: normal; font-feature-settings: &quot;kern&quot; 1, &quot;liga&quot; 1; letter-spacing:-0.4px;" data-final-font-size="31">
      <tspan x="0.0" dy="34.40px">Mallove Case Study</tspan>
    </text>
    <rect id="ITEM_3_HEAD_FRAME" x="-195" y="-90" width="390" height="51.75" fill="none"/>
    <text id="ITEM_3_BODY" data-bg-id="ITEM_3_TEXT_BG" text-anchor="middle" font-size="21" x="0.0" y="-30.0" fill="var(--primary-text)" font-weight="700" opacity="1" style="font-size: 23px; font-family: 'Segoe UI Variable Text', 'Aptos', 'Inter', 'Segoe UI', Helvetica, Arial, sans-serif; font-weight: 400; font-kerning: normal; font-feature-settings: &quot;kern&quot; 1, &quot;liga&quot; 1;" data-max-lines="20" data-final-font-size="23">
      <tspan x="0.0" dy="54.29px">Property disputes and local</tspan>
      <tspan x="0.0" dy="26.45px">witnesses provided a stronger</tspan>
      <tspan x="0.0" dy="26.45px">competing explanation</tspan>
    </text>
    <rect id="ITEM_3_BODY_FRAME" x="-190" y="-30" width="380" height="258.8" fill="none"/>
    <circle id="ITEM_3_PAD" cx="0.0" cy="-180.0" r="58" fill="var(--icon-pad-bg)" stroke="var(--semantic-uncertain)" opacity="1" fill-opacity="0.9" stroke-width="2" stroke-opacity="0.72" data-badge-layer="pad"/>
    <circle cx="0.0" cy="-180.0" r="46.4" fill="none" stroke="var(--accent-2)" stroke-width="3" stroke-dasharray="6 4" display="none" data-suppressed-decoration="redundant-badge-ring"/>
    <g id="ITEM_3_ICON" transform="translate(-45.0, -225.0)" data-icon-size="90" stroke-linecap="round" stroke-linejoin="round" data-badge-treatment="clean">
      <g transform="translate(-6.7028571428571455,-5.0871428571428625) scale(3.2314285714285718)">
        <path fill-rule="evenodd" clip-rule="evenodd" d="M10 8.83354V3.52275C10 3.23233 9.75879 3 9.46734 3H6.54271C6.24121 3 6 3.23233 6 3.52275V12.1687L5 13.0025V29.0025H27V14.0025L16.07 3.77246L10 8.83354Z" fill="#F3C07B"/>
        <path d="M15.92 27.0025H8.08C8.04 27.0025 8 26.9625 8 26.9225V16.3925C8 15.6425 8.61 15.0325 9.36 15.0325H14.65C15.4 15.0325 16.01 15.6425 16.01 16.3925V26.9225C16 26.9625 15.96 27.0025 15.92 27.0025Z" fill="#8C5543"/>
        <path d="M14.5 21.0024C14.7761 21.0024 15 20.7786 15 20.5024C15 20.2263 14.7761 20.0024 14.5 20.0024C14.2239 20.0024 14 20.2263 14 20.5024C14 20.7786 14.2239 21.0024 14.5 21.0024Z" fill="#402A32"/>
        <path d="M15.96 28.0024H8C7.45 28.0024 7 27.5524 7 27.0024C7 26.4524 7.45 26.0024 8 26.0024H15.96C16.51 26.0024 16.96 26.4524 16.96 27.0024C16.96 27.5524 16.51 28.0024 15.96 28.0024Z" fill="#D3D3D3"/>
        <path d="M30 29.0024H2V28.9124C2 27.8524 2.85 27.0024 3.91 27.0024H28.09C29.14 27.0024 30 27.8524 30 28.9124V29.0024Z" fill="#00F397"/>
        <path d="M16.88 2.3525L29.64 14.9225C30.12 15.3925 30.12 16.1525 29.64 16.6125C29.17 17.0825 28.4 17.0825 27.92 16.6125L16.02 4.8925L4.08 16.6525C3.61 17.1225 2.84 17.1225 2.36 16.6525C1.88 16.1825 1.88 15.4225 2.36 14.9525L15.16 2.3525C15.63 1.8825 16.4 1.8825 16.88 2.3525Z" fill="#F8312F"/>
        <path d="M23.14 21.0024H18.86C18.38 21.0024 18 20.6224 18 20.1424V15.8624C18 15.3924 18.38 15.0024 18.86 15.0024H23.14C23.61 15.0024 24 15.3824 24 15.8624V20.1424C24 20.6224 23.62 21.0024 23.14 21.0024Z" fill="#83CBFF"/>
      </g>
    </g>
  </g>
  <g transform="translate(1665.0, 630.0)">
    <rect id="CARD_4_BG" x="-225" y="-330" width="450" height="660" rx="18" fill="var(--semantic-evidence)" stroke="var(--accent-4)" stroke-width="2" fill-opacity="1.0"/>
    <circle cy="-180" r="50" fill="var(--background)" stroke="var(--accent-4)" stroke-width="2" id="ITEM_4_BADGE"/>
    <rect id="ITEM_4_TEXT_BG" x="-213.0" y="-106.0" width="426.0" height="350.8" rx="22" fill="var(--panel)" fill-opacity="0.94" stroke="var(--primary-text)" stroke-opacity="0.12" stroke-width="1.5"/>
    <rect id="COMPARISON_COLUMNS_ART_PANEL_SHEEN_4" x="-213.0" y="-106.0" width="426.0" height="350.8" rx="16" fill="var(--semantic-evidence)" opacity="0.82" fill-opacity="1.0"/>
    <text id="ITEM_4_HEAD" data-bg-id="ITEM_4_TEXT_BG" text-anchor="middle" font-weight="bold" font-size="36" fill="var(--primary-text)" x="0.0" y="-90.0" fill-opacity="1.0" style="font-size: 31px; font-family: 'Segoe UI Variable Display', 'Aptos Display', 'Inter', 'Segoe UI', Helvetica, Arial, sans-serif; font-weight: 700; font-kerning: normal; font-feature-settings: &quot;kern&quot; 1, &quot;liga&quot; 1; letter-spacing:-0.4px;" data-final-font-size="31">
      <tspan x="0.0" dy="34.40px">Ning Li Case Study</tspan>
    </text>
    <rect id="ITEM_4_HEAD_FRAME" x="-195" y="-90" width="390" height="51.75" fill="none"/>
    <text id="ITEM_4_BODY" data-bg-id="ITEM_4_TEXT_BG" text-anchor="middle" font-size="21" x="0.0" y="-30.0" fill="var(--primary-text)" font-weight="700" opacity="1" style="font-size: 23px; font-family: 'Segoe UI Variable Text', 'Aptos', 'Inter', 'Segoe UI', Helvetica, Arial, sans-serif; font-weight: 400; font-kerning: normal; font-feature-settings: &quot;kern&quot; 1, &quot;liga&quot; 1;" data-max-lines="20" data-final-font-size="23">
      <tspan x="0.0" dy="54.29px">Public absence was explained</tspan>
      <tspan x="0.0" dy="26.45px">by accident and medical care, not</tspan>
      <tspan x="0.0" dy="26.45px">disappearance</tspan>
    </text>
    <rect id="ITEM_4_BODY_FRAME" x="-190" y="-30" width="380" height="258.8" fill="none"/>
    <circle id="ITEM_4_PAD" cx="0.0" cy="-180.0" r="58" fill="var(--icon-pad-bg)" stroke="var(--semantic-evidence)" opacity="1" fill-opacity="0.9" stroke-width="2" stroke-opacity="0.72" data-badge-layer="pad"/>
    <circle cx="0.0" cy="-180.0" r="46.4" fill="none" stroke="var(--accent-3)" stroke-width="3" stroke-dasharray="6 4" display="none" data-suppressed-decoration="redundant-badge-ring"/>
    <g id="ITEM_4_ICON" transform="translate(-45.0, -225.0)" data-icon-size="90" stroke-linecap="round" stroke-linejoin="round" data-badge-treatment="clean">
      <g transform="translate(-6.7028571428571455,-16.397142857142864) scale(3.2314285714285718)">
        <path d="M14 12H9.97817C9.36099 12 8.77838 12.2849 8.39946 12.7721L2.84259 19.9167C2.29649 20.6188 2 21.4829 2 22.3724V25C2 26.1046 2.89543 27 4 27H14.3192C14.3192 19.7083 15.1183 13.0875 14 12Z" fill="#E6E6E6"/>
        <path d="M14.8896 8.8678C14.8462 8.91078 14.8041 8.95507 14.7633 9.00062C14.2886 9.5313 14 10.2319 14 11V21.0904H30V10C30 9.63485 29.9021 9.29256 29.7312 8.99791C29.7054 8.95343 29.678 8.91003 29.6489 8.8678H14.8896Z" fill="#F92F60"/>
        <path d="M17 8C16.1115 8 15.3132 8.38625 14.7639 9H29.7324C29.3866 8.4022 28.7403 8 28 8H17ZM30 21H14V27H28C29.1046 27 30 26.1046 30 25V21Z" fill="#D3D3D3"/>
        <path d="M12 26.5C12 28.433 10.433 30 8.5 30C6.567 30 5 28.433 5 26.5C5 24.567 6.567 23 8.5 23C10.433 23 12 24.567 12 26.5ZM27 26.5C27 28.433 25.433 30 23.5 30C21.567 30 20 28.433 20 26.5C20 24.567 21.567 23 23.5 23C25.433 23 27 24.567 27 26.5Z" fill="#433B6B"/>
        <path d="M10 26.5C10 27.3284 9.32843 28 8.5 28C7.67157 28 7 27.3284 7 26.5C7 25.6716 7.67157 25 8.5 25C9.32843 25 10 25.6716 10 26.5ZM25 26.5C25 27.3284 24.3284 28 23.5 28C22.6716 28 22 27.3284 22 26.5C22 25.6716 22.6716 25 23.5 25C24.3284 25 25 25.6716 25 26.5Z" fill="#F4F4F4"/>
        <path d="M22 12C21.4477 12 21 12.4477 21 13V14H20C19.4477 14 19 14.4477 19 15C19 15.5523 19.4477 16 20 16H21V17C21 17.5523 21.4477 18 22 18C22.5523 18 23 17.5523 23 17V16H24C24.5523 16 25 15.5523 25 15C25 14.4477 24.5523 14 24 14H23V13C23 12.4477 22.5523 12 22 12Z" fill="#F4F4F4"/>
        <path d="M3 25L2 25V22.3724C2 21.9011 2.08326 21.4368 2.24282 21H3C3.55228 21 4 21.4477 4 22V24C4 24.5523 3.55228 25 3 25ZM29.5 22C28.6716 22 28 22.6716 28 23.5C28 24.3284 28.6716 25 29.5 25H30V22H29.5Z" fill="#FF822D"/>
        <path d="M4.33331 18H11C12.1045 18 13 17.1046 13 16V14C13 13.4477 12.5523 13 12 13H8.2222L4.33331 18Z" fill="#26C9FC"/>
        <path d="M10 12C10 11.4477 10.4477 11 11 11H13C13.5523 11 14 11.4477 14 12V12H10V12Z" fill="#D3D3D3"/>
        <path d="M11 11C11 10.4477 11.4477 10 12 10V10C12.5523 10 13 10.4477 13 11V11H11V11Z" fill="#F8312F"/>
      </g>
    </g>
  </g>
  <text id="SOURCE_NOTE" x="134.0" y="1058.0" fill="var(--muted-text)" opacity="1" style="font-family: var(--font-family); font-size: 20px;">Source: criminal resource manual 1072 special considerations proving threat</text>
  <text id="EDITORIAL_NOTE" x="1786.0" y="1058.0" fill="var(--semantic-uncertain)" opacity="1" style="font-family: var(--font-family); font-size: 20px;" text-anchor="end">Interpretations remain disputed; wording reflects source uncertainty.</text>
</svg>
